<?xml version="1.0" encoding="UTF-8"?>
<svg width="167px" height="69px" viewBox="0 0 167 69" version="1.1" xmlns="http://www.w3.org/2000/svg" xmlns:xlink="http://www.w3.org/1999/xlink">
    <!-- Generator: Sketch 51.1 (57501) - http://www.bohemiancoding.com/sketch -->
    <title>isprit_logo</title>
    <desc>Created with Sketch.</desc>
    <defs>
        <linearGradient x1="-12.7498901%" y1="86.5650376%" x2="154.203927%" y2="11.2736566%" id="linearGradient-1">
            <stop stop-color="#F05E8C" offset="0%"></stop>
            <stop stop-color="#F37043" offset="24.54%"></stop>
            <stop stop-color="#F89925" offset="76.4%"></stop>
            <stop stop-color="#FFD238" offset="100%"></stop>
        </linearGradient>
        <linearGradient x1="118.934474%" y1="73.4501044%" x2="3.21311724%" y2="24.010209%" id="linearGradient-2">
            <stop stop-color="#F05E8C" offset="0%"></stop>
            <stop stop-color="#F37043" offset="24.54%"></stop>
            <stop stop-color="#F89925" offset="76.4%"></stop>
            <stop stop-color="#FFD238" offset="100%"></stop>
        </linearGradient>
    </defs>
    <g id="Page-1" stroke="none" stroke-width="1" fill="none" fill-rule="evenodd">
        <g id="isprit_logo" fill-rule="nonzero">
            <g id="Group">
                <g transform="translate(45.000000, 59.000000)" fill="#F26722" id="Shape">
                    <path d="M5.5,3.4 C5.5,3.4 7.3,3.4 7.4,3.4 L7.4,4.5 C7.3,4.5 5.5,4.5 5.4,4.5 C5.3,4.5 5.3,4.5 5.3,4.5 C4.9,4.5 4.6,4.6 4.4,4.9 C4.3,5.1 4.3,5.3 4.3,5.6 L4.3,7.6 L3.2,7.6 L3.2,3.4 L4.3,3.4 L4.3,4.1 C4.5,3.8 4.6,3.6 4.7,3.5 C4.9,3.5 5.2,3.4 5.5,3.4 C5.5,3.4 5.5,3.4 5.5,3.4 Z"></path>
                    <path d="M5.8,3.5 L5.8,2.3 L6.9,2.3 L6.9,3.5 L6.9,4.3 L6.9,6.5 C6.9,6.7 6.9,6.8 7,6.8 C7,6.8 7.2,6.9 7.4,6.9 C7.4,6.9 7.5,6.9 7.5,6.9 C7.5,6.9 7.6,6.9 7.6,6.9 L7.6,7.7 L7.1,7.7 C6.6,7.7 6.2,7.6 6,7.4 C5.9,7.3 5.8,7.1 5.8,6.8 L5.8,4.2 L5.8,3.5 Z"></path>
                    <path d="M5.5,9.9 C3,9.9 0.9,7.8 0.9,5.3 C0.9,2.8 3,0.7 5.5,0.7 C8,0.7 10.1,2.8 10.1,5.3 C10.1,7.9 8,9.9 5.5,9.9 Z M5.5,1.7 C3.5,1.7 1.9,3.3 1.9,5.3 C1.9,7.3 3.5,8.9 5.5,8.9 C7.5,8.9 9.1,7.3 9.1,5.3 C9.1,3.3 7.5,1.7 5.5,1.7 Z"></path>
                </g>
                <g id="Shape">
                    <g>
                        <path d="M58.4,2.2 C57.7,10.8 49.9,12.6 38.7,17.4 C33.4,19.7 28.3,23.4 26.5,29.7 C24.4,37 26.8,41.6 30.6,48.6 C32.2,51.6 33.8,56.5 31.1,61 C29.6,51.8 22.8,49.8 16.7,49.7 C10.6,49.7 3.7,51.2 0.9,45 C2.3,54.6 6.7,60.9 12.3,64.1 C20.2,68.5 28.3,68.8 35.4,66.1 C42,63.6 49,56.5 53.8,46.6 C59.1,35.4 61.6,17.5 58.4,2.2 Z" fill="#B9D532"></path>
                        <path d="M35.1,66.3 C42.7,63.4 48.1,52.9 46.5,35.5 C45,17.6 37.4,7.5 33.5,0 C35.4,5.9 31.5,9.5 25.1,16.3 C19.6,22.1 18.1,28.4 19.1,34.9 C20,41 25.2,45.5 29.1,50.3 C30.7,52.2 32.8,56.8 31.2,61 C31.5,52.3 26.1,49 20.6,47.5 C14.7,46 8.1,46.7 6.4,38.6 C5.8,52.3 11.7,60.7 18.7,64.7 C24.4,67.9 30.2,68.2 35.1,66.3 Z" fill="url(#linearGradient-1)"></path>
                    </g>
                    <path d="M18.6,64.7 C24.3,67.9 30.1,68.2 35.1,66.3 C42.7,63.4 48.1,52.9 46.5,35.5 C45.8,28 43.8,21.2 41.5,16.2 C40.5,16.6 39.2,17.2 38.1,17.7 C32.8,20 28.2,24.2 26.4,30.5 C24.3,37.8 26.7,42.4 30.5,49.4 C32.1,52.4 33.7,56.5 31,61 C29.5,51.8 22.7,50.6 16.6,50.5 C13.7,50.5 10.2,50.2 7.3,49.6 C9.1,56.7 14,62.1 18.6,64.7 Z" fill="url(#linearGradient-2)"></path>
                </g>
            </g>
            <g id="Group" transform="translate(69.000000, 3.000000)" fill="#FFFFFF">
                <path d="M3.1,22.3 C1.9,22.3 1,26.8 0.3,35.8 L0.3,38.6 C0.3,41.5 1.2,43.2 3.1,43.8 L4,43.5 L3.4,36.8 L4.6,23.9 L4.6,23.6 L3.4,22.4 L3.1,22.4 L3.1,22.3 Z" id="Shape"></path>
                <path d="M16.4,21.5 C17.4,21.5 18.3,22.1 19.2,23.3 L19.2,24 L18.3,24.9 L18,24.6 C15,24.9 13.4,25.5 13.1,26.4 C14.4,28.4 17.3,31.1 21.7,34.4 C22.5,35.8 22.9,36.9 22.9,37.8 L22.9,38.7 C22.9,41.4 20.9,43.1 16.8,43.9 L15.9,43.9 C13.4,43.4 12.2,42.2 12.2,40.2 L12.2,39.6 L13.1,38.7 L13.4,38.7 C13.6,40.1 14.7,40.8 16.8,40.8 C18.8,40.2 19.9,39.2 19.9,37.7 C19.9,37 17.4,34.7 12.5,31 C10.7,28.8 9.7,27.2 9.7,26.1 C9.7,24 11.9,22.4 16.4,21.5 Z" id="Shape"></path>
                <path d="M35.3,21.7 L32.2,21.7 C28.3,21.7 25.1,22.9 22.7,25.4 L22.7,26.3 L23.9,27.2 L28.5,25.7 L29.1,25.7 L29.4,34 L29.4,40.4 L29.1,40.7 C26.2,40.7 24.5,40 23.9,38.6 L24.2,37.1 L24,37.1 C23.2,37.4 22.8,38.1 22.8,39.2 L22.8,39.8 C22.8,42 24.4,43.4 27.7,43.8 L29.5,43.8 L29.2,49 L29.5,54.2 C29.5,61.1 30.6,65 32.9,65.8 L33.7,65.8 C33,63.8 32.8,61.6 32.8,59.4 C32.8,59.3 32.8,59.3 32.8,59.2 C32.7,58.6 32.7,57.9 32.8,57.3 C32.7,56.2 32.7,55 32.6,53.6 L32.6,43.4 L33.5,42.5 C40.4,39.1 43.9,35.1 43.9,30.5 L43.9,28.7 C43.9,24.6 41.1,22.3 35.3,21.7 Z M32.9,39.4 C32.9,33.1 32.6,28.2 32,24.7 L33.8,24.7 C38.5,24.7 40.8,26.3 40.8,29.6 C40.9,33.2 38.2,36.4 32.9,39.4 Z" id="Shape"></path>
                <path d="M48.9,22.3 C47.7,22.3 46.8,26.8 46.1,35.8 L46.1,38.6 C46.1,41.5 47,43.2 48.9,43.8 L49.8,43.5 L49.2,36.8 L50.4,23.9 L50.4,23.6 L49.2,22.4 L48.9,22.4 L48.9,22.3 Z" id="Shape"></path>
                <path d="M67.6,21.7 C70.3,21.7 71.5,22.6 71.4,24.3 C71.3,26 69.8,26.2 67,24.8 C61.6,26.6 58.9,29.1 58.9,32.2 L58.6,40.6 L58.6,40.9 L59.2,41.8 L59.2,44.3 L58,45.5 C56.2,45.5 55.2,43.4 55.2,39.1 L55.8,32.5 C55.2,32.5 54.9,32.3 54.9,31.9 L54.9,31.3 C55.9,28.8 56.7,25.5 57.4,21.5 L57.7,21.2 L58.3,21.2 C58.9,21.2 59.2,22.6 59.2,25.5 C62,22.9 64.8,21.7 67.6,21.7 Z" id="Shape"></path>
                <path d="M75.9,0.7 L76.8,0.7 C77.8,0.7 78.3,3.4 78.3,8.7 L78.3,10.8 L78.6,10.8 L87.2,9 L90.6,9 C93.1,9 95.3,10.5 97.3,13.6 L97.3,14.2 L97,14.2 C95.1,12.6 93.1,11.7 91.2,11.7 C82.2,12.6 77.7,13.9 77.7,15.7 C75.9,30.2 74.9,39.7 74.9,44.2 L74.9,45.4 L75.2,45.4 L75.2,44.5 L75.8,44.5 L75.8,46.6 C75.8,48 75.2,48.7 74,48.7 C72.6,48.1 71.9,47.1 71.9,45.6 L71.9,43 C71.9,37.9 72.8,28.8 74.7,15.7 L74.4,15.7 L66.1,17.2 L64.3,17.2 L63.1,16 C63.1,15.1 67.1,13.8 75,12 L75,5.6 L74.7,2.8 C75.1,1.4 75.5,0.7 75.9,0.7 Z" id="Shape"></path>
            </g>
        </g>
    </g>
</svg>