<?xml version="1.0" encoding="UTF-8"?>
<svg width="48px" height="48px" viewBox="0 0 48 48" version="1.1" xmlns="http://www.w3.org/2000/svg" xmlns:xlink="http://www.w3.org/1999/xlink">
    <!-- Generator: Sketch 50.2 (55047) - http://www.bohemiancoding.com/sketch -->
    <title>Group 7</title>
    <desc>Created with Sketch.</desc>
    <defs></defs>
    <g id="Page-1" stroke="none" stroke-width="1" fill="none" fill-rule="evenodd">
        <g id="Wireframes" transform="translate(-586.000000, -2527.000000)">
            <g id="Footer" transform="translate(0.000000, 2527.000000)">
                <g id="Group-7" transform="translate(586.000000, 0.000000)">
                    <polygon id="Fill-2" fill="#1484C7" points="0 48 48 48 48 0 0 0"></polygon>
                    <path d="M36,34 L30.6956726,34 L30.6956726,26.2661972 C30.6956726,24.2408451 29.8659454,22.8605634 28.0413923,22.8605634 C26.6458137,22.8605634 25.8697084,23.7915493 25.5084666,24.6915493 C25.3730009,25.0126761 25.3941675,25.4619718 25.3941675,25.9126761 L25.3941675,34 L20.1392286,34 C20.1392286,34 20.2069614,20.2985915 20.1392286,19.0549296 L25.3941675,19.0549296 L25.3941675,21.4 C25.7046096,20.3732394 27.3838194,18.9098592 30.0634995,18.9098592 C33.3880527,18.9098592 36,21.0591549 36,25.6901408 L36,34 Z M14.8250235,17.184507 L14.7911571,17.184507 C13.0978363,17.184507 12,16.0422535 12,14.5957746 C12,13.1183099 13.1302916,12 14.8574788,12 C16.5832549,12 17.6444026,13.115493 17.678269,14.5915493 C17.678269,16.0380282 16.5832549,17.184507 14.8250235,17.184507 Z M12.6053622,34 L17.2831609,34 L17.2831609,19.0549296 L12.6053622,19.0549296 L12.6053622,34 Z" id="Fill-8" fill="#FEFEFE"></path>
                </g>
            </g>
        </g>
    </g>
</svg>