<?xml version="1.0" encoding="UTF-8"?>
<svg width="48px" height="48px" viewBox="0 0 48 48" version="1.1" xmlns="http://www.w3.org/2000/svg" xmlns:xlink="http://www.w3.org/1999/xlink">
    <!-- Generator: Sketch 50.2 (55047) - http://www.bohemiancoding.com/sketch -->
    <title>Group 6</title>
    <desc>Created with Sketch.</desc>
    <defs></defs>
    <g id="Page-1" stroke="none" stroke-width="1" fill="none" fill-rule="evenodd">
        <g id="Wireframes" transform="translate(-538.000000, -2527.000000)">
            <g id="Footer" transform="translate(0.000000, 2527.000000)">
                <g id="Group-6" transform="translate(538.000000, 0.000000)">
                    <polygon id="Fill-1" fill="#78CBEF" points="0 48 48 48 48 0 0 0"></polygon>
                    <path d="M36,17.2499819 C35.1181546,17.6313813 34.167283,17.8893061 33.1727417,18.005921 C34.1898222,17.4118709 34.9702412,16.4720918 35.3365029,15.3525886 C34.3856313,15.9027367 33.3319246,16.3005993 32.2091918,16.514622 C31.3132594,15.5830746 30.0327522,15 28.6156013,15 C25.8982215,15 23.693608,17.1498303 23.693608,19.796303 C23.693608,20.1735865 23.7344603,20.5371507 23.8203909,20.8883674 C19.7281211,20.6880641 16.100722,18.7810672 13.6707167,15.8766698 C13.2466984,16.5887068 13.0044022,17.4118709 13.0044022,18.2912846 C13.0044022,19.9527042 13.8735693,21.4220521 15.1949287,22.2822586 C14.3877443,22.2575637 13.6284557,22.0407972 12.9635499,21.6827208 L12.9635499,21.7417142 C12.9635499,24.0671529 14.6610319,26.0057044 16.9149498,26.4447253 C16.5007924,26.5572243 16.0669132,26.6134739 15.6161296,26.6134739 C15.2991724,26.6134739 14.9892587,26.5860351 14.6906145,26.5297855 C15.3160768,28.4326666 17.1347068,29.8210701 19.2900158,29.8581125 C17.6038035,31.1449924 15.4808945,31.911907 13.1748547,31.911907 C12.7776017,31.911907 12.3845747,31.889956 12,31.8460539 C14.1792569,33.2056466 16.7670365,34 19.5478077,34 C28.6057404,34 33.5573164,26.6930464 33.5573164,20.3533107 C33.5573164,20.1447758 33.5530903,19.9376128 33.5432294,19.7331937 C34.5053707,19.0554553 35.3421377,18.211712 36,17.2499819" id="Fill-4" fill="#FEFEFE"></path>
                </g>
            </g>
        </g>
    </g>
</svg>